<svg width="1400" height="870" viewBox="0 0 1400 870" fill="none" xmlns="http://www.w3.org/2000/svg">
<path d="M2010.44 4.35076C1938.48 -7.61079 1869.76 13.4471 1828.47 38.6635C1788.97 62.5717 1758.92 94.0678 1730.64 124.654C1718.02 137.795 1705.38 151.732 1691.64 164.284C1635.38 217.889 1575.04 245.151 1507.64 247.983C1431.04 250.89 1351.74 221.668 1274.7 193.225C1267.34 190.397 1260.54 188.064 1253.18 185.236C1175.57 156.698 1076.16 126.942 998.792 148.567C976.109 154.821 957.277 165.325 939.032 175.525C923.154 184.113 907.259 193.1 889.178 199.317C808.678 227.239 703.965 200.611 648.369 182.147C602.989 166.985 558.914 148.031 516.536 129.759C482.628 115.301 448.164 100.35 413.048 87.2953C316.185 51.5465 231.558 39.8861 167.198 52.8466C124.867 61.4491 90.5647 84.6186 76.1047 114.695C64.1907 138.779 66.5714 164.838 82.8393 188.794C106.694 224.037 159.531 253.67 223.955 267.186C272.404 277.645 321.228 278.943 368.911 280.052C376.956 280.186 384.413 280.624 392.458 280.758C472.858 283.295 578.356 290.806 675.774 327.048C774.89 363.973 849.314 428.071 865.71 490.945C875.155 527 861.576 563.639 829.493 588.781C802.158 610.302 764.38 620.062 724.27 616.603C665.818 611.699 611.806 582.672 559.491 554.328C551.055 549.718 542.047 545.013 533.611 540.402C476.76 510.502 396.378 479.498 336.896 499.685C264.588 524.156 281.423 604.345 288.487 628.376C292.011 640.59 296.661 653.393 300.772 665.304C314.167 703.218 327.529 741.929 318.046 776.843C304.597 824.33 244.51 859.253 164.876 866.066C100.826 871.46 25.9421 860.616 -64.362 833.176C-206.9 789.434 -338.095 721.513 -444.437 636.472L-446.199 637.382C-339.874 722.822 -208.124 791.235 -65.5697 834.579C25.2892 862.513 100.761 873.053 164.811 867.659C245.016 860.941 305.706 825.316 319.743 777.526C329.814 742.309 315.897 703.105 302.502 665.19C298.407 652.881 293.741 640.477 290.217 628.262C283.136 604.63 266.252 525.636 337.402 501.373C396.296 481.489 475.52 512.702 531.245 542.014C539.681 546.624 548.117 551.234 557.141 555.541C610.027 583.98 664.61 613.102 723.633 618.101C764.886 621.75 802.68 611.591 830.602 589.767C863.273 564.322 876.869 527.285 867.456 490.433C851.076 427.161 775.559 361.679 675.872 324.659C577.883 288.322 472.385 280.811 391.414 278.179C383.369 278.044 375.911 277.607 367.866 277.473C320.755 276.459 271.931 275.16 223.482 264.701C160.217 250.978 107.918 222.235 84.6181 187.486C68.8886 164.421 66.4916 138.761 77.8181 114.98C92.2618 85.3017 125.961 62.8338 167.72 54.1364C231.509 41.081 315.548 53.0447 411.857 88.3003C446.973 101.355 481.437 116.306 515.345 130.764C558.294 149.131 602.352 168.484 647.733 183.645C703.328 202.109 809.183 228.927 890.842 200.797C909.511 194.276 925.406 185.29 941.284 176.701C959.529 166.501 978.345 156.396 1000.46 150.047C1076.66 128.63 1174.93 158.196 1252.56 186.336C1259.34 189.068 1266.72 191.497 1274.08 194.325C1351.12 222.768 1430.98 252.483 1508.16 249.273C1576.13 246.535 1637.05 219.369 1693.9 165.062C1707.66 152.112 1720.29 138.573 1732.92 125.034C1761.78 94.5424 1791.23 63.3498 1830.74 39.4416C1879.68 9.8835 1966.92 -14.1107 2051.92 16.4584L2052.58 14.562C2038.38 10.1973 2024.15 6.62912 2010.44 4.35076Z" fill="#555774" fill-opacity="0.13"/>
</svg>
