<svg width="94" height="42" viewBox="0 0 94 42" fill="none" xmlns="http://www.w3.org/2000/svg">
<g clip-path="url(#clip0_2116_5260)">
<path fill-rule="evenodd" clip-rule="evenodd" d="M61.6406 6.03226C57.8252 9.16546 53.6673 11.7128 49.2566 13.607C46.8826 9.16336 43.8986 4.96756 40.3684 1.09726C42.5042 0.373578 44.7426 0.0030151 46.9964 9.56042e-06C52.4776 -0.00525294 57.7398 2.16222 61.6416 6.03226H61.6406ZM47.5823 17.9918C48.1497 19.2139 48.6751 20.4554 49.1574 21.714C42.1189 24.0576 35.966 28.9307 32.1277 35.7431C28.2901 31.844 26.129 26.5859 26.1096 21.1008C33.6223 21.5208 40.8854 20.4015 47.5834 17.9928L47.5823 17.9918ZM50.8201 16.7223C51.4318 18.0562 51.9962 19.4116 52.5121 20.7858C57.6076 19.7139 62.8912 19.9706 67.8602 21.5313C67.8634 21.4599 67.8675 21.3896 67.8728 21.3203C67.8801 21.2142 67.8874 21.1082 67.8874 21C67.8874 16.3989 66.398 12.1559 63.9007 8.69506C59.9345 11.9714 55.5316 14.6734 50.8201 16.7223ZM56.4486 39.7089C56.1802 34.4379 55.2715 29.1963 53.6704 24.1196C58.2639 23.2271 62.9973 23.5505 67.4863 25.0835C66.2288 31.4885 62.0719 36.833 56.4486 39.71V39.7089ZM45.9854 14.8628C43.5675 10.4318 40.5407 6.31051 36.9823 2.56831C34.1964 4.10253 31.7953 6.25527 29.9616 8.86277C28.1278 11.4703 26.9097 14.4639 26.4 17.6159C33.1408 17.9802 39.7668 17.0352 45.9854 14.8628ZM48.373 25.7145C49.0129 25.4561 49.6623 25.2221 50.3198 25.0131C51.9596 30.1623 52.8526 35.5698 53.0218 41.1044C51.0675 41.6979 49.037 41.9997 46.9954 42C42.625 42.0015 38.3656 40.617 34.8234 38.0436C37.7708 32.4828 42.5032 28.1579 48.373 25.7145Z" fill="#EA4C89"/>
<path d="M11.3016 4.80571C11.8378 3.95204 12.2655 3.03419 12.5748 2.07361C12.5748 2.07361 11.4081 2.46841 9.97619 3.61606C8.66646 4.80886 7.15097 6.88786 7.2575 9.60946C9.21584 8.02816 10.5078 6.33346 11.3005 4.80571H11.3016ZM3.82442 20.5221L3.74922 21.633C3.73564 21.8693 3.89544 22.0793 4.13044 22.0856C4.35604 22.1045 4.55866 21.9123 4.57224 21.6834L4.64848 20.5757C6.25693 19.5992 7.3609 18.2037 8.05441 16.9616C8.40535 16.2717 8.71868 15.6512 8.94428 15.206C9.12706 14.7335 9.24613 14.4468 9.24613 14.4468C9.24613 14.4468 8.20064 14.5487 6.91388 15.3939C6.00313 16.0922 4.78008 17.3679 4.32679 19.3986C4.32366 19.3986 4.32157 19.3955 4.31739 19.3944C4.33306 17.3007 4.08135 15.6354 3.56122 14.3093C3.08704 12.7448 2.40188 11.7788 2.40188 11.7788L2.11571 12.771C1.96426 13.3926 1.76686 14.2452 1.82535 15.2417C1.83788 17.0456 2.28908 19.1624 3.82442 20.5221Z" fill="#00E676"/>
<path d="M4.82914 14.7692C4.81016 14.8227 4.80216 14.8795 4.80564 14.9362C4.80912 14.9929 4.82401 15.0483 4.84939 15.099C4.87477 15.1498 4.91013 15.1948 4.95333 15.2314C4.99653 15.268 5.04666 15.2955 5.1007 15.312C5.31377 15.3813 5.53519 15.2427 5.61666 15.0254L5.96341 14.0016C7.71599 13.4724 8.85861 12.3059 9.85083 11.3493C10.2766 10.8925 10.6546 10.3928 10.9788 9.85835C11.2483 9.46775 11.4248 9.23885 11.4248 9.23885C11.4248 9.23885 10.3407 9.0425 9.0957 9.641C8.05752 10.0967 6.75197 11.0217 5.8997 12.7563C5.89135 12.7532 5.88403 12.75 5.87568 12.749C6.30599 10.8317 6.31957 9.2399 6.14514 7.9232C5.87359 6.2978 5.50281 5.29505 5.50281 5.29505C5.35972 5.1533 2.74026 10.4064 5.15919 13.779L4.82914 14.7692ZM7.23972 34.274C7.54366 34.7192 8.1087 35.5277 8.15257 35.4846C8.32386 35.6631 8.59541 35.682 8.75626 35.5203C8.83489 35.4414 8.87993 35.3349 8.88188 35.2232C8.88383 35.1115 8.84253 35.0035 8.7667 34.9218C8.72283 34.9544 8.1557 34.149 7.86952 33.7385C9.34741 29.0912 8.43352 25.3784 8.59437 25.1285C8.59437 25.1285 7.41937 25.7753 6.77703 27.26C6.09188 28.5557 5.71901 30.9612 7.15721 33.3741C7.14677 33.3815 7.13737 33.3846 7.12901 33.392C7.11335 33.4025 7.10499 33.4203 7.0935 33.4329C5.41717 31.1901 3.98837 29.5679 2.65461 28.2984C1.0775 26.9061 0.012166 26.1953 0.0132105 26.189C-0.0734784 26.1543 0.239855 28.2785 1.50677 30.5349C2.67341 32.5971 4.86466 34.3664 7.23972 34.2729V34.274Z" fill="#00E676"/>
<path d="M12.3993 39.1796L15.07 40.8627C15.2726 40.9992 15.5347 40.8942 15.6277 40.6905C15.7259 40.4627 15.6277 40.2285 15.4366 40.1004L12.8025 38.433C12.6876 35.8647 11.9993 33.7763 11.4134 32.3063C10.8703 30.6746 10.2196 29.6256 10.2645 29.5784C10.2645 29.5784 9.36208 30.6242 9.24301 32.4218C8.98503 34.1144 9.71405 36.5735 12.1351 38.4236C12.1184 38.4425 12.0996 38.4572 12.0849 38.4792C9.56365 36.8591 7.32436 35.9508 5.57805 35.1591C3.56019 34.4084 2.17734 34.0997 2.17734 34.0997C2.17734 34.0997 2.36534 34.6289 2.9189 35.3492C3.4829 36.0422 4.24012 37.0292 5.28456 37.8461C7.29512 39.3948 10.0953 40.3178 12.3993 39.1796ZM4.29339 27.7934L4.69863 29.2896C4.76443 29.5259 4.9869 29.6666 5.19996 29.5794C5.3054 29.5337 5.39119 29.4518 5.44192 29.3482C5.49265 29.2447 5.505 29.1264 5.47674 29.0145L5.08821 27.576C6.57028 25.854 7.51445 23.9924 7.94999 22.473C8.61112 20.814 8.62052 19.4742 8.69572 19.4543C8.69572 19.4543 7.50192 19.7693 6.3405 21.0293C5.26263 22.1181 4.15552 24.173 4.58165 26.9576C4.55241 26.9555 4.52316 26.9492 4.49392 26.9544C3.78787 24.2402 2.9471 22.1706 2.0917 20.6177C1.09112 18.8894 0.135452 17.9024 0.135452 17.9024C0.135452 17.9024 0.0184745 18.3738 0.0393634 19.1603C0.0351856 19.9415 0.0874078 21.0335 0.273319 22.1885C0.803897 24.4082 1.96323 26.9313 4.29443 27.7944L4.29339 27.7934ZM82.6988 4.80571C82.1626 3.95204 81.7348 3.03419 81.4256 2.07361C81.4256 2.07361 82.5923 2.46841 84.0242 3.61606C85.3339 4.80991 86.8494 6.88891 86.7429 9.60946C84.7846 8.02816 83.4926 6.33346 82.6998 4.80571H82.6988ZM90.1749 20.5221L90.2512 21.633C90.2648 21.8693 90.1049 22.0793 89.8699 22.0856C89.6443 22.1045 89.4417 21.9123 89.4282 21.6834L89.3519 20.5757C87.7435 19.5992 86.6395 18.2037 85.946 16.9616C85.595 16.2717 85.2817 15.6512 85.0561 15.206C84.8733 14.7335 84.7543 14.4468 84.7543 14.4468C84.7543 14.4468 85.8008 14.5487 87.0865 15.3939C87.9962 16.0922 89.2203 17.3679 89.6736 19.3986C89.6767 19.3986 89.6788 19.3955 89.683 19.3944C89.6684 17.3007 89.919 15.6354 90.4392 14.3093C90.9134 12.7448 91.5985 11.7788 91.5985 11.7788L91.8847 12.771C92.0361 13.3926 92.2335 14.2452 92.175 15.2417C92.1625 17.0456 91.7113 19.1624 90.1749 20.5221Z" fill="#00E676"/>
<path d="M89.1694 14.7692C89.1884 14.8227 89.1964 14.8795 89.1929 14.9362C89.1894 14.9929 89.1745 15.0483 89.1492 15.099C89.1238 15.1498 89.0884 15.1948 89.0452 15.2314C89.002 15.268 88.9519 15.2955 88.8978 15.312C88.6848 15.3813 88.4634 15.2427 88.3819 15.0254L88.0351 14.0016C86.2826 13.4724 85.1399 12.3059 84.1477 11.3493C83.7219 10.8925 83.344 10.3928 83.0197 9.85835C82.7502 9.46775 82.5737 9.23885 82.5737 9.23885C82.5737 9.23885 83.6579 9.0425 84.9028 9.641C85.941 10.0967 87.2466 11.0217 88.0988 12.7563C88.1072 12.7532 88.1145 12.75 88.1229 12.749C87.6926 10.8317 87.679 9.2399 87.8534 7.9232C88.125 6.2978 88.4957 5.29505 88.4957 5.29505C88.6388 5.1533 91.2583 10.4064 88.8394 13.779L89.1694 14.7692ZM86.7588 34.274C86.4549 34.7192 85.8898 35.5277 85.846 35.4846C85.6747 35.6631 85.4031 35.682 85.2423 35.5203C85.1637 35.4414 85.1186 35.3349 85.1167 35.2232C85.1147 35.1115 85.156 35.0035 85.2318 34.9218C85.2757 34.9544 85.8428 34.149 86.129 33.7385C84.6511 29.0912 85.565 25.3784 85.4031 25.1285C85.4031 25.1285 86.5792 25.7753 87.2205 27.26C87.9056 28.5557 88.2795 30.9612 86.8413 33.3741C86.8518 33.3815 86.8612 33.3846 86.8695 33.392C86.8852 33.4025 86.8925 33.4203 86.905 33.4329C88.5814 31.1901 90.0102 29.5679 91.3439 28.2984C92.921 26.9061 93.9864 26.1953 93.9853 26.189C94.072 26.1543 93.7587 28.2785 92.4918 30.5349C91.3251 32.5971 89.1339 34.3664 86.7588 34.2729V34.274Z" fill="#00E676"/>
<path d="M81.5988 39.1797L78.9281 40.8628C78.7255 40.9993 78.4634 40.8943 78.3704 40.6906C78.2722 40.4628 78.3704 40.2286 78.5615 40.1005L81.1956 38.4331C81.3105 35.8648 81.9988 33.7764 82.5847 32.3064C83.1278 30.6747 83.7785 29.6257 83.7336 29.5785C83.7336 29.5785 84.636 30.6243 84.7551 32.4219C85.0131 34.1145 84.284 36.5736 81.863 38.4237C81.8797 38.4426 81.8985 38.4573 81.9132 38.4793C84.4344 36.8592 86.6737 35.9509 88.42 35.1592C90.4379 34.4085 91.8208 34.0998 91.8208 34.0998C91.8208 34.0998 91.6328 34.629 91.0792 35.3493C90.5152 36.0423 89.758 37.0293 88.7135 37.8462C86.703 39.3949 83.9028 40.3179 81.5988 39.1797ZM89.7037 27.7935L89.2995 29.2897C89.2337 29.526 89.0112 29.6667 88.7981 29.5795C88.6927 29.5339 88.6069 29.4519 88.5562 29.3484C88.5054 29.2448 88.4931 29.1265 88.5214 29.0146L88.9099 27.5761C87.4278 25.8541 86.4836 23.9925 86.0481 22.4731C85.387 20.8141 85.3776 19.4743 85.3024 19.4544C85.3024 19.4544 86.4962 19.7694 87.6576 21.0294C88.7355 22.1182 89.8426 24.1731 89.4154 26.9577C89.4457 26.9556 89.4749 26.9493 89.5042 26.9545C90.2102 24.2403 91.051 22.1707 91.9064 20.6178C92.908 18.8895 93.8626 17.9025 93.8626 17.9025C93.8626 17.9025 93.9796 18.3739 93.9587 19.1604C93.9629 19.9416 93.9107 21.0336 93.7248 22.1886C93.1942 24.4083 92.0349 26.9314 89.7037 27.7945V27.7935Z" fill="#00E676"/>
</g>
<defs>
<clipPath id="clip0_2116_5260">
<rect width="94" height="42" fill="white"/>
</clipPath>
</defs>
</svg>
