<svg width="90" height="42" viewBox="0 0 90 42" fill="none" xmlns="http://www.w3.org/2000/svg">
<g clip-path="url(#clip0_2116_5251)">
<path d="M55.4391 29.8431C53.2864 31.7593 50.4891 32.8282 47.4751 32.8282C40.5901 32.8282 35.6338 27.9268 35.6338 20.8939C35.6338 13.861 40.5838 9.16857 47.4751 9.16857C50.4891 9.16857 53.2864 10.0222 55.4391 12.1537L56.946 13.4305L63.403 7.03602L61.896 5.54502C57.8073 2.13462 52.851 0.00311924 47.4741 0.00311924C35.2069 -0.211081 26.1629 8.53017 26.1629 20.8939C26.1629 32.8282 35.4162 42 47.4751 42C53.0687 42 58.2354 40.0837 62.3304 36.4602L63.8373 34.9671L56.9534 28.1494L55.4391 29.8431Z" fill="#17313B"/>
<circle cx="47" cy="20.9998" r="6" fill="#FF3D2E"/>
<path d="M11.3229 4.69865C12.2125 3.28325 12.5986 1.96655 12.5986 1.96655C12.5986 1.96655 11.4297 2.3603 9.9949 3.50795C8.68258 4.7018 7.16409 6.7808 7.27083 9.50135C9.23304 7.92005 10.5276 6.22535 11.3219 4.69865H11.3229ZM3.83095 20.414L3.75665 21.5249C3.74304 21.7622 3.90316 21.9722 4.13862 21.9775C4.36467 21.9964 4.56769 21.8042 4.5813 21.5753L4.65769 20.4676C6.26932 19.4911 7.37548 18.0967 8.07037 16.8535C8.42199 16.1647 8.73595 15.5441 8.962 15.0979C9.14513 14.6254 9.26444 14.3398 9.26444 14.3398C9.26444 14.3398 8.21688 14.4416 6.92758 15.2858C6.01502 15.9841 4.78955 17.2598 4.33537 19.2905C4.33223 19.2905 4.33013 19.2874 4.32595 19.2874C4.34165 17.1926 4.08944 15.5263 3.56827 14.2022C3.09316 12.6377 2.40665 11.6707 2.40665 11.6707L2.1199 12.664C1.96816 13.2856 1.77037 14.1371 1.82897 15.1336C1.84153 16.9385 2.29362 19.0553 3.83199 20.414H3.83095Z" fill="#00E676"/>
<path d="M4.83882 14.6612C4.81963 14.7147 4.81149 14.7716 4.8149 14.8284C4.8183 14.8853 4.83318 14.9408 4.85863 14.9917C4.88407 15.0425 4.91956 15.0877 4.96293 15.1244C5.0063 15.161 5.05665 15.1885 5.11092 15.2051C5.3244 15.2733 5.54627 15.1347 5.62789 14.9174L5.97534 13.8947C7.73138 13.3655 8.87627 12.1979 9.87045 11.2413C10.2971 10.7844 10.6758 10.2848 11.0007 9.75031C11.2707 9.36076 11.4475 9.13081 11.4475 9.13081C11.4475 9.13081 10.3613 8.93446 9.11382 9.53296C8.07359 9.98866 6.76545 10.9137 5.9115 12.6483L5.88743 12.641C6.31859 10.7237 6.3322 9.13291 6.15743 7.81516C5.88534 6.18976 5.51382 5.18701 5.51382 5.18701C5.37045 5.04526 2.7458 10.2984 5.16952 13.671L4.83882 14.6612ZM7.25417 34.167C7.55871 34.6112 8.12487 35.4197 8.16882 35.3766C8.34045 35.5551 8.61254 35.5751 8.77371 35.4123C8.85218 35.3334 8.89712 35.2271 8.89908 35.1157C8.90103 35.0043 8.85984 34.8964 8.78417 34.8149C8.74022 34.8464 8.17196 34.041 7.88522 33.6305C9.36603 28.9832 8.45033 25.2704 8.61254 25.0205C8.61254 25.0205 7.43417 25.6673 6.79161 27.152C6.10406 28.4477 5.73045 30.8532 7.1715 33.2672C7.16103 33.2745 7.15161 33.2777 7.14324 33.285C7.12755 33.2955 7.11917 33.3123 7.10766 33.3249C5.42801 31.0832 3.99638 29.4599 2.65999 28.1904C1.07975 26.7992 0.0123127 26.0883 0.0133592 26.081C-0.0735013 26.0463 0.240452 28.1705 1.50987 30.4269C2.67882 32.4891 4.87441 34.2594 7.25417 34.166V34.167Z" fill="#00E676"/>
<path d="M12.4257 39.0715L15.1017 40.7546C15.3047 40.8911 15.5674 40.7861 15.6605 40.5824C15.7589 40.3556 15.6605 40.1204 15.469 39.9923L12.8297 38.3249C12.7146 35.7566 12.0249 33.6682 11.4378 32.1992C10.8936 30.5675 10.2417 29.5175 10.2867 29.4703C10.2867 29.4703 9.38248 30.5161 9.26318 32.3147C9.00469 34.0063 9.73516 36.4664 12.161 38.3165C12.1442 38.3344 12.1254 38.348 12.1107 38.3711C9.58446 36.7499 7.34074 35.8438 5.58993 35.051C3.56807 34.3003 2.18248 33.9916 2.18248 33.9916C2.18248 33.9916 2.37086 34.5208 2.92551 35.2411C3.49062 35.9351 4.24934 36.9211 5.29586 37.738C7.31039 39.2867 10.1161 40.2097 12.4247 39.0715H12.4257ZM4.30376 27.6863L4.70981 29.1815C4.77574 29.4178 4.99865 29.5585 5.21214 29.4724C5.31822 29.4266 5.4045 29.3443 5.45537 29.2403C5.50623 29.1364 5.51833 29.0175 5.48946 28.9054L5.10016 27.4679C6.58516 25.747 7.53121 23.8843 7.9676 22.3649C8.63004 20.7059 8.63946 19.3661 8.71481 19.3462C8.71481 19.3462 7.51865 19.6612 6.35493 20.9212C5.27493 22.01 4.16562 24.0649 4.5926 26.8495C4.5633 26.8474 4.534 26.8411 4.50469 26.8463C3.79725 24.1321 2.95481 22.0625 2.09772 20.5106C1.09516 18.7813 0.137601 17.7953 0.137601 17.7953C0.137601 17.7953 0.0203912 18.2657 0.0413214 19.0522C0.0371354 19.8334 0.089461 20.9264 0.27574 22.0814C0.807368 24.3011 1.969 26.8232 4.30481 27.6863H4.30376ZM78.6783 4.69865C77.7888 3.28325 77.4026 1.96655 77.4026 1.96655C77.4026 1.96655 78.5716 2.3603 80.0063 3.50795C81.3186 4.7018 82.8371 6.7808 82.7304 9.50135C80.7682 7.92005 79.4737 6.22535 78.6793 4.69865H78.6783ZM86.1692 20.414L86.2456 21.5249C86.2592 21.7622 86.0991 21.9722 85.8636 21.9775C85.6376 21.9964 85.4346 21.8042 85.421 21.5753L85.3446 20.4676C83.733 19.4911 82.6268 18.0967 81.9309 16.8535L81.0403 15.0979C80.8571 14.6254 80.7378 14.3398 80.7378 14.3398C80.7378 14.3398 81.7854 14.4416 83.0747 15.2858C83.9862 15.9841 85.2127 17.2598 85.6669 19.2905C85.67 19.2905 85.6721 19.2874 85.6763 19.2874C85.6606 17.1926 85.9128 15.5263 86.434 14.2022C86.9091 12.6377 87.5956 11.6707 87.5956 11.6707L87.8824 12.664C88.0341 13.2856 88.2319 14.1371 88.1733 15.1336C88.1607 16.9385 87.7086 19.0553 86.1692 20.414V20.414Z" fill="#00E676"/>
<path d="M85.1602 14.6612C85.1794 14.7147 85.1875 14.7716 85.1841 14.8284C85.1807 14.8853 85.1658 14.9408 85.1404 14.9917C85.1149 15.0425 85.0794 15.0877 85.0361 15.1244C84.9927 15.161 84.9424 15.1885 84.8881 15.2051C84.6746 15.2733 84.4527 15.1347 84.3711 14.9174L84.0237 13.8947C82.2676 13.3655 81.1227 12.1979 80.1286 11.2413C79.7019 10.7844 79.3232 10.2848 78.9983 9.75031C78.7283 9.36076 78.5515 9.13081 78.5515 9.13081C78.5515 9.13081 79.6377 8.93446 80.8852 9.53296C81.9254 9.98866 83.2335 10.9137 84.0875 12.6483L84.1116 12.641C83.6804 10.7237 83.6668 9.13291 83.8416 7.81516C84.1137 6.18976 84.4852 5.18701 84.4852 5.18701C84.6286 5.04526 87.2532 10.2984 84.8295 13.671L85.1602 14.6612ZM82.7448 34.167C82.4403 34.6112 81.8741 35.4197 81.8302 35.3766C81.6586 35.5551 81.3865 35.5751 81.2253 35.4123C81.1468 35.3334 81.1019 35.2271 81.0999 35.1157C81.098 35.0043 81.1392 34.8964 81.2148 34.8149C81.2588 34.8464 81.827 34.041 82.1138 33.6305C80.633 28.9832 81.5487 25.2704 81.3865 25.0205C81.3865 25.0205 82.5648 25.6673 83.2074 27.152C83.8939 28.4477 84.2686 30.8532 82.8275 33.2672C82.838 33.2745 82.8474 33.2777 82.8558 33.285C82.8715 33.2955 82.8788 33.3123 82.8913 33.3249C84.571 31.0832 86.0026 29.4599 87.339 28.1904C88.9193 26.7992 89.9867 26.0883 89.9856 26.081C90.0725 26.0463 89.7586 28.1705 88.4891 30.4269C87.3202 32.4891 85.1246 34.2594 82.7448 34.166V34.167Z" fill="#00E676"/>
<path d="M77.5752 39.0716L74.8993 40.7547C74.6963 40.8912 74.4336 40.7862 74.3394 40.5825C74.2421 40.3557 74.3415 40.1205 74.532 39.9924L77.1713 38.325C77.2864 35.7567 77.976 33.6683 78.5631 32.1993C79.1073 30.5676 79.7593 29.5176 79.7143 29.4704C79.7143 29.4704 80.6185 30.5162 80.7378 32.3148C80.9963 34.0064 80.2658 36.4665 77.84 38.3166C77.8567 38.3345 77.8756 38.3481 77.8902 38.3712C80.4165 36.7511 82.6602 35.8439 84.41 35.0511C86.4318 34.3004 87.8174 33.9917 87.8174 33.9917C87.8174 33.9917 87.6291 34.5209 87.0744 35.2412C86.5093 35.9352 85.7506 36.9212 84.7041 37.7381C82.6885 39.2868 79.8838 40.2098 77.5752 39.0716ZM85.6961 27.6864L85.2911 29.1816C85.2252 29.4179 85.0023 29.5586 84.7888 29.4725C84.6827 29.4267 84.5965 29.3444 84.5456 29.2404C84.4947 29.1365 84.4826 29.0176 84.5115 28.9055L84.9008 27.468C83.4158 25.7471 82.4698 23.8844 82.0334 22.365C81.3709 20.706 81.3605 19.3662 81.2862 19.3463C81.2862 19.3463 82.4823 19.6613 83.646 20.9213C84.726 22.0101 85.8353 24.065 85.4073 26.8496C85.4377 26.8475 85.467 26.8412 85.4963 26.8464C86.2037 24.1322 87.0461 22.0626 87.9032 20.5107C88.9068 18.7814 89.8634 17.7954 89.8634 17.7954C89.8634 17.7954 89.9806 18.2658 89.9596 19.0523C89.9638 19.8335 89.9115 20.9265 89.7252 22.0815C89.1936 24.3012 88.032 26.8233 85.6961 27.6864V27.6864Z" fill="#00E676"/>
</g>
<defs>
<clipPath id="clip0_2116_5251">
<rect width="90" height="42" fill="white"/>
</clipPath>
</defs>
</svg>
