<svg width="94" height="40" viewBox="0 0 94 40" fill="none" xmlns="http://www.w3.org/2000/svg">
<g clip-path="url(#clip0_2116_5267)">
<path fill-rule="evenodd" clip-rule="evenodd" d="M30.0882 0H63.9147C65.5336 0 66.8454 1.28316 66.8454 2.86526V37.1326C66.8454 38.7158 65.5346 40 63.9147 40H30.0882C28.4694 40 27.1565 38.7168 27.1565 37.1326V2.86526C27.1565 1.28421 28.4694 0 30.0882 0ZM52.0059 21.5747C53.3407 22.6642 54.8071 23.3326 56.3748 23.3326C57.3912 23.329 58.3649 22.9207 59.0839 22.1967C59.8028 21.4727 60.2088 20.4917 60.2132 19.4674C60.2126 18.4411 59.8082 17.4569 59.0886 16.7307C58.3691 16.0045 57.3931 15.5956 56.3748 15.5937C53.5527 15.5937 52.6357 18.3432 52.3454 19.9811L52.3307 20.0368L52.007 21.5737L52.0059 21.5747ZM48.8381 17.9221C49.9734 14.0337 52.7694 11.6695 56.3748 11.6695C60.6299 11.6695 64.0933 15.1653 64.0974 19.4505C64.0974 23.7453 60.633 27.2632 56.378 27.2632C54.3872 27.2632 52.6514 26.6516 51.1411 25.6758L49.4199 33.8568H45.4447L47.8229 22.5779C46.7001 21.1526 45.7758 19.5505 45.0217 17.9632V19.6726C45.0217 23.8453 41.6544 27.2705 37.5205 27.2705C33.3856 27.2705 30.0193 23.8453 30.0329 19.6726V9.48316H33.914V19.6726C33.9149 20.6384 34.2956 21.5645 34.9729 22.2478C35.6501 22.9311 36.5685 23.3159 37.5268 23.3179C38.4851 23.3157 39.4034 22.9308 40.0808 22.2476C40.7581 21.5643 41.1392 20.6384 41.1406 19.6726V9.48316H45.0196C45.7894 12.14 47.1012 15.2937 48.8371 17.9211L48.8381 17.9221Z" fill="#999FAE"/>
<path fill-rule="evenodd" clip-rule="evenodd" d="M29.9318 0H63.7582C65.3771 0 66.6889 1.28316 66.6889 2.86526V37.1326C66.6889 38.7158 65.3781 40 63.7582 40H29.9318C28.3129 40 27 38.7168 27 37.1326V2.86526C27 1.28421 28.3129 0 29.9318 0ZM51.8494 21.5747C53.1842 22.6642 54.6506 23.3326 56.2183 23.3326C57.2347 23.329 58.2084 22.9207 58.9274 22.1967C59.6463 21.4727 60.0523 20.4917 60.0567 19.4674C60.0561 18.4411 59.6517 17.4569 58.9321 16.7307C58.2126 16.0045 57.2366 15.5956 56.2183 15.5937C53.3962 15.5937 52.4792 18.3432 52.1889 19.9811L52.1742 20.0368L51.8505 21.5737L51.8494 21.5747ZM48.6816 17.9221C49.8169 14.0337 52.6129 11.6695 56.2183 11.6695C60.4734 11.6695 63.9368 15.1653 63.9409 19.4505C63.9409 23.7453 60.4765 27.2632 56.2215 27.2632C54.2307 27.2632 52.4949 26.6516 50.9846 25.6758L49.2634 33.8568H45.2882L47.6664 22.5779C46.5436 21.1526 45.6193 19.5505 44.8652 17.9632V19.6726C44.8652 23.8453 41.4979 27.2705 37.364 27.2705C33.2291 27.2705 29.8628 23.8453 29.8764 19.6726V9.48316H33.7576V19.6726C33.7584 20.6384 34.1391 21.5645 34.8164 22.2478C35.4936 22.9311 36.412 23.3159 37.3703 23.3179C38.3286 23.3157 39.247 22.9308 39.9243 22.2476C40.6016 21.5643 40.9827 20.6384 40.9841 19.6726V9.48316H44.8631C45.6329 12.14 46.9447 15.2937 48.6806 17.9211L48.6816 17.9221Z" fill="#6FDA44"/>
<path d="M11.3015 2.84722C12.1892 1.42933 12.5746 0.108276 12.5746 0.108276C12.5746 0.108276 11.408 0.504066 9.97503 1.65249C8.66634 2.85038 7.15085 4.93564 7.25738 7.66301C9.21572 6.0767 10.5077 4.3788 11.3004 2.84722H11.3015ZM3.82429 18.602L3.74909 19.7167C3.73552 19.9535 3.89532 20.1641 4.13032 20.1693C4.35592 20.1883 4.55854 19.9956 4.57212 19.7672L4.64836 18.6556C6.2568 17.6767 7.36078 16.2788 8.05429 15.0325C8.40523 14.342 8.71856 13.7199 8.94416 13.2735C9.12694 12.7999 9.24601 12.5125 9.24601 12.5125C9.24601 12.5125 8.20052 12.6146 6.91376 13.4609C6.00301 14.162 4.77996 15.4399 4.32667 17.4756C4.32354 17.4756 4.32145 17.4725 4.31727 17.4725C4.33294 15.3725 4.08123 13.702 3.56109 12.3746C3.08692 10.8062 2.40176 9.8367 2.40176 9.8367L2.11558 10.8325C1.96414 11.4556 1.76674 12.3093 1.82523 13.3083C1.83776 15.1177 2.28896 17.2399 3.82429 18.603V18.602Z" fill="#00E676"/>
<path d="M4.82963 12.8347C4.81048 12.8884 4.80236 12.9454 4.80575 13.0024C4.80915 13.0594 4.824 13.115 4.8494 13.166C4.87479 13.217 4.91021 13.2623 4.95349 13.299C4.99678 13.3358 5.04703 13.3634 5.10119 13.38C5.31425 13.4494 5.53568 13.3094 5.61714 13.0915L5.9639 12.0663C7.71648 11.5358 8.8591 10.3652 9.85132 9.40628C10.2771 8.94827 10.6551 8.44739 10.9793 7.91154C11.2488 7.52101 11.4253 7.29049 11.4253 7.29049C11.4253 7.29049 10.3412 7.09364 9.09619 7.69364C8.05801 8.15049 6.75246 9.07891 5.90019 10.8168L5.87617 10.8094C6.30648 8.88838 6.32006 7.29259 6.14563 5.97154C5.87408 4.34206 5.5033 3.3368 5.5033 3.3368C5.36021 3.1947 2.74074 8.46101 5.15968 11.8421L4.82963 12.8347ZM7.24021 32.3894C7.54414 32.8347 8.10919 33.6452 8.15306 33.6031C8.32434 33.7821 8.5959 33.801 8.75674 33.6379C8.83507 33.5588 8.87992 33.4522 8.88186 33.3405C8.88381 33.2288 8.84271 33.1207 8.76719 33.0389C8.72332 33.0705 8.15619 32.2642 7.87001 31.8515C9.3479 27.1926 8.43401 23.4705 8.59486 23.22C8.59486 23.22 7.41986 23.8684 6.77752 25.3568C6.09237 26.6558 5.7195 29.0673 7.1577 31.4873C7.14726 31.4947 7.13786 31.4979 7.1295 31.5052C7.11383 31.5158 7.10548 31.5326 7.09399 31.5452C5.41765 29.2979 3.98885 27.6705 2.6551 26.3979C1.07799 25.0031 0.0126543 24.2905 0.0136988 24.2842C-0.0729901 24.2484 0.240343 26.3768 1.50725 28.64C2.6739 30.7084 4.86514 32.4821 7.24021 32.3884V32.3894Z" fill="#00E676"/>
<path d="M12.4004 37.3057L15.0711 38.993C15.2737 39.1299 15.5358 39.0246 15.6288 38.8215C15.727 38.593 15.6288 38.3573 15.4377 38.2288L12.8036 36.5573C12.6887 33.9825 12.0004 31.8899 11.4145 30.4162C10.8714 28.7804 10.2207 27.7288 10.2656 27.6804C10.2656 27.6804 9.36317 28.7288 9.24411 30.532C8.98613 32.2278 9.71515 34.6941 12.1362 36.5488C12.1195 36.5667 12.1007 36.5815 12.086 36.6036C9.56475 34.9794 7.32546 34.0699 5.57915 33.2752C3.56128 32.5225 2.17844 32.2141 2.17844 32.2141C2.17844 32.2141 2.36644 32.7436 2.92 33.4667C3.484 34.1615 4.24122 35.1509 5.28566 35.9699C7.29622 37.5225 10.0964 38.4467 12.4004 37.3067V37.3057ZM4.29448 25.892L4.69973 27.392C4.76553 27.6288 4.988 27.7688 5.20106 27.6825C5.30672 27.6367 5.39267 27.5544 5.44341 27.4503C5.49416 27.3463 5.50637 27.2274 5.47784 27.1152L5.08931 25.673C6.57137 23.9478 7.51555 22.0804 7.95109 20.5573C8.61222 18.8952 8.62162 17.552 8.69682 17.5309C8.69682 17.5309 7.50302 17.8467 6.3416 19.1099C5.26373 20.2015 4.15662 22.2615 4.58275 25.053C4.55351 25.0509 4.52426 25.0446 4.49502 25.0499C3.78897 22.3288 2.9482 20.2541 2.0928 18.6983C1.09222 16.9646 0.136551 15.9762 0.136551 15.9762C0.136551 15.9762 0.0195731 16.4478 0.040462 17.2362C0.0362842 18.0194 0.0885064 19.1152 0.274418 20.273C0.804995 22.4983 1.96433 25.0267 4.29553 25.892H4.29448ZM82.6999 2.84674C82.164 1.99088 81.7366 1.07073 81.4278 0.107788C81.4278 0.107788 82.5944 0.503577 84.0263 1.65305C85.3361 2.84989 86.8516 4.93516 86.745 7.66252C84.7867 6.07621 83.4947 4.37831 82.702 2.84674H82.6999ZM90.176 18.6015L90.2523 19.7162C90.2659 19.953 90.106 20.1636 89.871 20.1688C89.6454 20.1878 89.4428 19.9952 89.4293 19.7667L89.353 18.6552C87.7446 17.6762 86.6406 16.2783 85.9471 15.032C85.5961 14.3415 85.2828 13.7194 85.0572 13.273C84.8744 12.7994 84.7554 12.512 84.7554 12.512C84.7554 12.512 85.8019 12.6141 87.0876 13.4604C87.9973 14.1615 89.2214 15.4394 89.6747 17.4752C89.6778 17.4752 89.6799 17.472 89.6841 17.472C89.6695 15.372 89.9201 13.7015 90.4403 12.3741C90.9145 10.8057 91.5996 9.83621 91.5996 9.83621L91.8858 10.832C92.0372 11.4552 92.2346 12.3088 92.1761 13.3078C92.1636 15.1173 91.7124 17.2394 90.176 18.6025V18.6015Z" fill="#00E676"/>
<path d="M89.169 12.8347C89.1882 12.8884 89.1963 12.9454 89.1929 13.0024C89.1895 13.0594 89.1747 13.115 89.1493 13.166C89.1239 13.217 89.0885 13.2623 89.0452 13.299C89.0019 13.3358 88.9516 13.3634 88.8975 13.38C88.6844 13.4494 88.463 13.3094 88.3815 13.0915L88.0348 12.0663C86.2822 11.5357 85.1396 10.3652 84.1473 9.40628C83.7216 8.94826 83.3436 8.44739 83.0193 7.91154C82.7499 7.52101 82.5734 7.29049 82.5734 7.29049C82.5734 7.29049 83.6575 7.09364 84.9025 7.69364C85.9407 8.15049 87.2462 9.07891 88.0985 10.8168L88.1225 10.8094C87.6922 8.88838 87.6786 7.29259 87.853 5.97154C88.1246 4.34206 88.4954 3.3368 88.4954 3.3368C88.6385 3.1947 91.2579 8.46101 88.839 11.8421L89.169 12.8347ZM86.7585 32.3894C86.4545 32.8347 85.8895 33.6452 85.8456 33.6031C85.6743 33.7821 85.4028 33.801 85.2419 33.6379C85.1636 33.5588 85.1187 33.4522 85.1168 33.3405C85.1149 33.2288 85.156 33.1207 85.2315 33.0389C85.2753 33.0705 85.8425 32.2642 86.1287 31.8515C84.6508 27.1926 85.5647 23.4705 85.4028 23.22C85.4028 23.22 86.5788 23.8684 87.2201 25.3568C87.9053 26.6558 88.2792 29.0673 86.841 31.4873C86.8514 31.4947 86.8608 31.4979 86.8692 31.5052C86.8848 31.5157 86.8921 31.5326 86.9047 31.5452C88.581 29.2979 90.0098 27.6705 91.3436 26.3979C92.9207 25.0031 93.986 24.2905 93.985 24.2842C94.0717 24.2484 93.7583 26.3768 92.4914 28.64C91.3248 30.7084 89.1335 32.4821 86.7585 32.3884V32.3894Z" fill="#00E676"/>
<path d="M81.6006 37.3065L78.93 38.9939C78.7273 39.1307 78.4652 39.0255 78.3722 38.8223C78.2741 38.5939 78.3722 38.3581 78.5634 38.2297L81.1975 36.5581C81.3123 33.9834 82.0006 31.8907 82.5866 30.417C83.1297 28.7813 83.7804 27.7297 83.7355 27.6813C83.7355 27.6813 84.6379 28.7297 84.7569 30.5328C85.0149 32.2286 84.2859 34.6949 81.8649 36.5497C81.8816 36.5676 81.9004 36.5823 81.915 36.6044C84.4363 34.9802 86.6756 34.0707 88.4219 33.276C90.4397 32.5234 91.8226 32.2149 91.8226 32.2149C91.8226 32.2149 91.6346 32.7444 91.081 33.4676C90.517 34.1623 89.7598 35.1518 88.7154 35.9707C86.7048 37.5234 83.9047 38.4476 81.6006 37.3076V37.3065ZM89.7055 25.8928L89.3013 27.3928C89.2355 27.6297 89.013 27.7697 88.8 27.6834C88.6943 27.6376 88.6084 27.5552 88.5576 27.4512C88.5069 27.3472 88.4947 27.2283 88.5232 27.116L88.9117 25.6739C87.4297 23.9486 86.4855 22.0813 86.0499 20.5581C85.3888 18.896 85.3794 17.5528 85.3042 17.5318C85.3042 17.5318 86.498 17.8476 87.6594 19.1107C88.7373 20.2023 89.8444 22.2623 89.4172 25.0539C89.4475 25.0518 89.4768 25.0455 89.506 25.0507C90.2121 22.3297 91.0528 20.2549 91.9082 18.6992C92.9099 16.9655 93.8645 15.9771 93.8645 15.9771C93.8645 15.9771 93.9814 16.4486 93.9606 17.2371C93.9647 18.0202 93.9125 19.116 93.7266 20.2739C93.196 22.4992 92.0367 25.0276 89.7055 25.8928Z" fill="#00E676"/>
</g>
<defs>
<clipPath id="clip0_2116_5267">
<rect width="94" height="40" fill="white"/>
</clipPath>
</defs>
</svg>
